<?xml version="1.0" encoding="UTF-8" standalone="no"?>
<svg width="1440px" height="480px" viewBox="0 0 1440 480" version="1.1" xmlns="http://www.w3.org/2000/svg" xmlns:xlink="http://www.w3.org/1999/xlink" xmlns:sketch="http://www.bohemiancoding.com/sketch/ns">
    <!-- Generator: Sketch 3.3 (11970) - http://www.bohemiancoding.com/sketch -->
    <title>Banner Hex Tiles</title>
    <desc>Created with Sketch.</desc>
    <defs>
        <linearGradient x1="0.25781251%" y1="49.7500002%" x2="101.257813%" y2="49.7500002%" id="linearGradient-1">
            <stop stop-color="#18BC9C" offset="0%"></stop>
            <stop stop-color="#00C4FA" offset="100%"></stop>
        </linearGradient>
    </defs>
    <g id="Banners" stroke="none" stroke-width="1" fill="none" fill-rule="evenodd" sketch:type="MSPage">
        <g id="Banner-Hex-Tiles" sketch:type="MSArtboardGroup">
            <g sketch:type="MSLayerGroup" transform="translate(0.000000, -120.000000)">
                <g sketch:type="MSShapeGroup">
                    <rect id="BG" fill="url(#linearGradient-1)" x="0" y="0" width="1440" height="600"></rect>
                    <path d="M1199.275,422.75 L1139.25,457.247126 L1139.25,526.241379 L1199.275,560.738506 L1259.3,526.241379 L1259.3,457.247126 L1199.275,422.75 Z" id="fill" fill="#FFFFFF" transform="translate(1199.275000, 491.744253) rotate(-90.000000) translate(-1199.275000, -491.744253) "></path>
                    <path d="M1116.3975,341.75 L1077.25,364.248563 L1077.25,409.24569 L1116.3975,431.744253 L1155.545,409.24569 L1155.545,364.248563 L1116.3975,341.75 Z" id="fill-copy-2" fill="#FFFFFF" transform="translate(1116.397500, 386.747126) rotate(-90.000000) translate(-1116.397500, -386.747126) "></path>
                    <path d="M1281.00625,212.75 L1193.25,263.184626 L1193.25,364.053879 L1281.00625,414.488506 L1368.7625,364.053879 L1368.7625,263.184626 L1281.00625,212.75 Z" id="fill-copy" fill="#FFFFFF" transform="translate(1281.006250, 313.619253) rotate(-90.000000) translate(-1281.006250, -313.619253) "></path>
                    <path d="M998.25,292.75 L911.25,342.75 L911.25,442.75 L998.25,492.75 L1085.25,442.75 L1085.25,342.75 L998.25,292.75 Z" id="outline" stroke="#FFFFFF" stroke-linecap="square" transform="translate(998.250000, 392.750000) rotate(-90.000000) translate(-998.250000, -392.750000) "></path>
                    <path d="M998.25,119.75 L911.25,169.75 L911.25,269.75 L998.25,319.75 L1085.25,269.75 L1085.25,169.75 L998.25,119.75 Z" id="outline-copy-4" stroke="#FFFFFF" stroke-linecap="square" transform="translate(998.250000, 219.750000) rotate(-90.000000) translate(-998.250000, -219.750000) "></path>
                    <path d="M849.25,206.75 L762.25,256.75 L762.25,356.75 L849.25,406.75 L936.25,356.75 L936.25,256.75 L849.25,206.75 Z" id="outline-copy" stroke="#FFFFFF" stroke-linecap="square" transform="translate(849.250000, 306.750000) rotate(-90.000000) translate(-849.250000, -306.750000) "></path>
                    <path d="M670.25,482.75 L583.25,532.75 L583.25,632.75 L670.25,682.75 L757.25,632.75 L757.25,532.75 L670.25,482.75 Z" id="outline-copy-6" stroke="#FFFFFF" stroke-linecap="square" transform="translate(670.250000, 582.750000) rotate(-90.000000) translate(-670.250000, -582.750000) "></path>
                    <path d="M849.25,379.75 L762.25,429.75 L762.25,529.75 L849.25,579.75 L936.25,529.75 L936.25,429.75 L849.25,379.75 Z" id="outline-copy-5" stroke="#FFFFFF" stroke-linecap="square" transform="translate(849.250000, 479.750000) rotate(-90.000000) translate(-849.250000, -479.750000) "></path>
                    <path d="M1147,206 L1060,256 L1060,356 L1147,406 L1234,356 L1234,256 L1147,206 Z" id="outline-copy-2" stroke="#FFFFFF" stroke-linecap="square" transform="translate(1147.000000, 306.000000) rotate(-90.000000) translate(-1147.000000, -306.000000) "></path>
                    <path d="M1296,119 L1209,169 L1209,269 L1296,319 L1383,269 L1383,169 L1296,119 Z" id="outline-copy-3" stroke="#FFFFFF" stroke-linecap="square" transform="translate(1296.000000, 219.000000) rotate(-90.000000) translate(-1296.000000, -219.000000) "></path>
                    <path d="M1574.75,311.75 L1282.25,472.75 L1282.25,794.75 L1574.75,955.75 L1867.25,794.75 L1867.25,472.75 L1574.75,311.75 Z" id="Big-2" fill="#FFFFFF" transform="translate(1574.750000, 633.750000) rotate(-90.000000) translate(-1574.750000, -633.750000) "></path>
                    <path d="M914.75,401.75 L707.25,521.75 L707.25,761.75 L914.75,881.75 L1122.25,761.75 L1122.25,521.75 L914.75,401.75 Z" id="Big-1" fill="#FFFFFF" transform="translate(914.750000, 641.750000) rotate(-90.000000) translate(-914.750000, -641.750000) "></path>
                </g>
            </g>
        </g>
    </g>
</svg>