<?xml version="1.0" encoding="UTF-8" standalone="no"?>
<svg width="1200px" height="600px" viewBox="0 0 1200 600" version="1.1" xmlns="http://www.w3.org/2000/svg" xmlns:xlink="http://www.w3.org/1999/xlink" xmlns:sketch="http://www.bohemiancoding.com/sketch/ns">
    <!-- Generator: Sketch 3.3 (11970) - http://www.bohemiancoding.com/sketch -->
    <title>Landscape</title>
    <desc>Created with Sketch.</desc>
    <defs></defs>
    <g id="Page-1" stroke="none" stroke-width="1" fill="none" fill-rule="evenodd" sketch:type="MSPage">
        <g id="Landscape" sketch:type="MSArtboardGroup">
            <path d="M958,423.005747 L897.975,457.502874 L897.975,526.497126 L958,560.994253 L1018.025,526.497126 L1018.025,457.502874 L958,423.005747 Z" id="fill" fill="#FFFFFF" sketch:type="MSShapeGroup" transform="translate(958.000000, 492.000000) rotate(-90.000000) translate(-958.000000, -492.000000) "></path>
            <path d="M875,342.002874 L835.8525,364.501437 L835.8525,409.498563 L875,431.997126 L914.1475,409.498563 L914.1475,364.501437 L875,342.002874 Z" id="fill-copy-2" fill="#FFFFFF" sketch:type="MSShapeGroup" transform="translate(875.000000, 387.000000) rotate(-90.000000) translate(-875.000000, -387.000000) "></path>
            <path d="M1040,213.130747 L952.24375,263.565374 L952.24375,364.434626 L1040,414.869253 L1127.75625,364.434626 L1127.75625,263.565374 L1040,213.130747 Z" id="fill-copy" fill="#FFFFFF" sketch:type="MSShapeGroup" transform="translate(1040.000000, 314.000000) rotate(-90.000000) translate(-1040.000000, -314.000000) "></path>
            <path d="M757,292 L670,342 L670,442 L757,492 L844,442 L844,342 L757,292 Z" id="outline" stroke="#FFFFFF" stroke-linecap="square" sketch:type="MSShapeGroup" transform="translate(757.000000, 392.000000) rotate(-90.000000) translate(-757.000000, -392.000000) "></path>
            <path d="M757,119 L670,169 L670,269 L757,319 L844,269 L844,169 L757,119 Z" id="outline-copy-4" stroke="#FFFFFF" stroke-linecap="square" sketch:type="MSShapeGroup" transform="translate(757.000000, 219.000000) rotate(-90.000000) translate(-757.000000, -219.000000) "></path>
            <path d="M608,205 L521,255 L521,355 L608,405 L695,355 L695,255 L608,205 Z" id="outline-copy" stroke="#FFFFFF" stroke-linecap="square" sketch:type="MSShapeGroup" transform="translate(608.000000, 305.000000) rotate(-90.000000) translate(-608.000000, -305.000000) "></path>
            <path d="M408,85 L321,135 L321,235 L408,285 L495,235 L495,135 L408,85 Z" id="outline-copy-6" stroke="#FFFFFF" stroke-linecap="square" opacity="0.6" sketch:type="MSShapeGroup" transform="translate(408.000000, 185.000000) rotate(-90.000000) translate(-408.000000, -185.000000) "></path>
            <path d="M607.5,378 L520.5,428 L520.5,528 L607.5,578 L694.5,528 L694.5,428 L607.5,378 Z" id="outline-copy-5" stroke="#FFFFFF" stroke-linecap="square" sketch:type="MSShapeGroup" transform="translate(607.500000, 478.000000) rotate(-90.000000) translate(-607.500000, -478.000000) "></path>
            <path d="M906,205 L819,255 L819,355 L906,405 L993,355 L993,255 L906,205 Z" id="outline-copy-2" stroke="#FFFFFF" stroke-linecap="square" sketch:type="MSShapeGroup" transform="translate(906.000000, 305.000000) rotate(-90.000000) translate(-906.000000, -305.000000) "></path>
            <path d="M1055,118 L968,168 L968,268 L1055,318 L1142,268 L1142,168 L1055,118 Z" id="outline-copy-3" stroke="#FFFFFF" stroke-linecap="square" sketch:type="MSShapeGroup" transform="translate(1055.000000, 218.000000) rotate(-90.000000) translate(-1055.000000, -218.000000) "></path>
            <path d="M1333.5,312 L1041,473 L1041,795 L1333.5,956 L1626,795 L1626,473 L1333.5,312 Z" id="Line-Copy" fill="#FFFFFF" sketch:type="MSShapeGroup" transform="translate(1333.500000, 634.000000) rotate(-90.000000) translate(-1333.500000, -634.000000) "></path>
            <path d="M673.5,402 L466,522 L466,762 L673.5,882 L881,762 L881,522 L673.5,402 Z" id="Line-Copy-2" fill="#FFFFFF" sketch:type="MSShapeGroup" transform="translate(673.500000, 642.000000) rotate(-90.000000) translate(-673.500000, -642.000000) "></path>
        </g>
    </g>
</svg>